<svg id="Layer_1" data-name="Layer 1" xmlns="http://www.w3.org/2000/svg" viewBox="0 0 417.23 96.14"><polygon points="83.91 72.11 41.96 96.14 0 72.11 0 24.04 41.96 0 83.91 24.04 83.91 72.11" style="fill:#f47c23"/><text transform="translate(98.72 66.51)" style="isolation:isolate;font-size:45px;fill:#231f20;font-family:AvertaCYW01-Bold, Averta CY W01;font-weight:700;letter-spacing:0.22600911458333334em">R<tspan x="39.65" y="0" style="letter-spacing:0.25em">OS</tspan><tspan x="125.19" y="0" style="letter-spacing:0.23999565972222223em">S</tspan><tspan x="162.18" y="0" style="letter-spacing:0.25em">ARIO</tspan></text><path d="M37.39,66.33a4.57,4.57,0,1,1-4.54-4.6,4.58,4.58,0,0,1,4.54,4.6m18.24-4.56a4.57,4.57,0,1,0,4.56,4.58v0a4.57,4.57,0,0,0-4.56-4.56M33.28,54a.61.61,0,0,0,0,.27.58.58,0,0,0,.57.57H60.21v4.57H32.85a4.58,4.58,0,0,1-4.57-4.57h0a4.77,4.77,0,0,1,.55-2.28l3.1-5.5L23.72,29.78H19.15V25.21h7.46l2.15,4.57H62.52a2.28,2.28,0,0,1,2.28,2.28,2.82,2.82,0,0,1-.28,1.14L56.35,48a4.61,4.61,0,0,1-4,2.28h-17L33.29,54M37.4,42.33h9.13v4.56l6.85-6.84L46.53,33.2v4.56H37.4Z" style="fill:#fff"/></svg>